<svg width="19" height="12" viewBox="0 0 19 12" fill="none" xmlns="http://www.w3.org/2000/svg">
<g id="Processor/Mastercard">
<rect id="BASE" x="0.75" width="17.5" height="12" rx="1" fill="black"/>
<g id="Mastercard">
<path id="Left" fill-rule="evenodd" clip-rule="evenodd" d="M9.625 8.57847C9.02921 9.09261 8.25638 9.40299 7.41189 9.40299C5.52755 9.40299 4 7.8577 4 5.95149C4 4.04529 5.52755 2.5 7.41189 2.5C8.25638 2.5 9.02921 2.81038 9.625 3.32451C10.2208 2.81038 10.9936 2.5 11.8381 2.5C13.7224 2.5 15.25 4.04529 15.25 5.95149C15.25 7.8577 13.7224 9.40299 11.8381 9.40299C10.9936 9.40299 10.2208 9.09261 9.625 8.57847Z" fill="#ED0006"/>
<path id="Right" fill-rule="evenodd" clip-rule="evenodd" d="M9.625 8.57847C10.3586 7.9454 10.8238 7.0034 10.8238 5.95149C10.8238 4.89958 10.3586 3.95758 9.625 3.32451C10.2208 2.81038 10.9936 2.5 11.8381 2.5C13.7224 2.5 15.25 4.04529 15.25 5.95149C15.25 7.8577 13.7224 9.40299 11.8381 9.40299C10.9936 9.40299 10.2208 9.09261 9.625 8.57847Z" fill="#F9A000"/>
<path id="Middle" fill-rule="evenodd" clip-rule="evenodd" d="M9.62503 3.32458C10.3586 3.95765 10.8238 4.89965 10.8238 5.95155C10.8238 7.00345 10.3586 7.94545 9.62503 8.57851C8.89143 7.94545 8.42627 7.00345 8.42627 5.95155C8.42627 4.89965 8.89143 3.95765 9.62503 3.32458Z" fill="#FF5E00"/>
</g>
</g>
</svg>
