<svg width="18" height="12" viewBox="0 0 18 12" fill="none" xmlns="http://www.w3.org/2000/svg">
<g id="Processor/Visa">
<rect id="BASE" width="17.5" height="12" rx="1" fill="#00579F"/>
<path id="polygon9" d="M7.48705 8.0414H6.49756L7.11646 4.2146H8.10589L7.48705 8.0414Z" fill="white"/>
<path id="path11" d="M11.0737 4.30819C10.8785 4.23076 10.5689 4.14526 10.1862 4.14526C9.20902 4.14526 8.52092 4.66633 8.5167 5.4113C8.50858 5.96094 9.00936 6.26623 9.3839 6.44949C9.76672 6.63676 9.89685 6.759 9.89685 6.92592C9.89296 7.18229 9.58751 7.30046 9.30263 7.30046C8.90758 7.30046 8.69591 7.23954 8.37423 7.09691L8.24393 7.03576L8.10547 7.8948C8.33754 8.00053 8.76511 8.09435 9.20902 8.09846C10.2473 8.09846 10.9232 7.58546 10.9312 6.79157C10.9351 6.35594 10.6707 6.02214 10.1006 5.74938C9.75455 5.57428 9.5426 5.45621 9.5426 5.27706C9.54666 5.11419 9.72186 4.94737 10.1125 4.94737C10.4342 4.9392 10.6706 5.01653 10.8496 5.0939L10.9391 5.13454L11.0737 4.30819Z" fill="white"/>
<path id="path13" d="M12.3893 6.6857C12.4708 6.46586 12.7844 5.61499 12.7844 5.61499C12.7802 5.62316 12.8657 5.39109 12.9145 5.24862L12.9837 5.57836C12.9837 5.57836 13.1711 6.49437 13.2118 6.6857C13.0571 6.6857 12.5847 6.6857 12.3893 6.6857ZM13.6107 4.2146H12.8453C12.6093 4.2146 12.43 4.28375 12.3282 4.53211L10.8584 8.04135H11.8966C11.8966 8.04135 12.0676 7.56903 12.1043 7.4673C12.2182 7.4673 13.2282 7.4673 13.3747 7.4673C13.4031 7.60166 13.4928 8.04135 13.4928 8.04135H14.409L13.6107 4.2146Z" fill="white"/>
<path id="path15" d="M5.67099 4.2146L4.70195 6.82411L4.59606 6.29487C4.41691 5.6842 3.85504 5.02071 3.22803 4.69081L4.11563 8.03734H5.16199L6.7173 4.2146H5.67099Z" fill="white"/>
<path id="path17" d="M3.80213 4.2146H2.21013L2.19385 4.29192C3.4357 4.60949 4.25816 5.37497 4.59607 6.29503L4.24999 4.53628C4.19301 4.29187 4.01791 4.22266 3.80213 4.2146Z" fill="#FAA61A"/>
</g>
</svg>
